<?xml version="1.0" standalone="no"?>
<!DOCTYPE svg PUBLIC "-//W3C//DTD SVG 20010904//EN"
 "http://www.w3.org/TR/2001/REC-SVG-20010904/DTD/svg10.dtd">
<svg version="1.0" xmlns="http://www.w3.org/2000/svg"
 width="256.000000pt" height="256.000000pt" viewBox="0 0 256.000000 256.000000"
 preserveAspectRatio="xMidYMid meet">

<g transform="translate(0.000000,256.000000) scale(0.100000,-0.100000)"
fill="#fff" stroke="none">
<path d="M1191 2549 c-158 -31 -295 -161 -336 -319 -21 -80 -21 -376 0 -444 8
-27 14 -50 13 -51 -2 -1 -57 -22 -123 -46 -159 -58 -231 -107 -268 -179 -15
-31 -31 -80 -34 -110 -5 -47 -10 -58 -36 -75 -17 -11 -40 -33 -51 -48 -21 -28
-21 -38 -23 -604 -2 -635 -4 -614 60 -653 31 -19 57 -20 887 -20 830 0 856 1
887 20 64 39 62 18 60 653 -2 566 -2 576 -23 604 -11 15 -34 37 -51 48 -26 17
-31 28 -36 75 -3 30 -19 79 -34 110 -37 72 -103 116 -265 177 -68 25 -124 47
-126 48 -1 1 5 24 13 51 21 68 21 364 0 444 -58 224 -284 364 -514 319z m-69
-366 c68 -35 79 -38 158 -38 79 0 90 3 158 38 74 38 115 45 143 24 24 -18 39
-52 39 -87 0 -27 -3 -31 -17 -25 -98 39 -224 -10 -263 -104 -11 -29 -16 -31
-60 -31 -44 0 -49 2 -60 31 -39 94 -165 143 -262 104 -37 -15 -18 82 21 112
28 21 69 14 143 -24z m213 -344 c10 -30 63 -88 99 -106 16 -9 52 -18 79 -22
l48 -6 -42 -43 c-23 -23 -67 -54 -98 -70 -48 -23 -69 -27 -141 -27 -72 0 -93
4 -141 27 -31 16 -75 47 -98 70 l-42 43 48 6 c27 4 63 13 79 22 36 18 89 76
99 106 5 17 15 21 55 21 40 0 50 -4 55 -21z m777 -606 c17 -15 18 -43 18 -481
0 -419 -2 -467 -17 -484 -15 -17 -54 -18 -831 -18 -745 0 -817 1 -834 17 -17
15 -18 43 -18 481 0 419 2 467 17 484 15 17 54 18 831 18 745 0 817 -1 834
-17z"/>
<path d="M546 1134 c-9 -8 -16 -24 -16 -34 0 -40 26 -50 130 -50 95 0 100 1
116 25 15 23 15 27 0 50 -16 24 -21 25 -116 25 -76 0 -102 -4 -114 -16z"/>
<path d="M846 1134 c-9 -8 -16 -24 -16 -34 0 -10 7 -26 16 -34 8 -9 24 -16 34
-16 10 0 26 7 34 16 9 8 16 24 16 34 0 10 -7 26 -16 34 -8 9 -24 16 -34 16
-10 0 -26 -7 -34 -16z"/>
<path d="M1247 1082 c-10 -10 -17 -33 -17 -50 0 -31 -2 -32 -41 -32 -84 0
-147 -54 -156 -134 -10 -89 49 -156 144 -164 l53 -4 0 -49 0 -49 -84 0 c-89 0
-116 -11 -116 -50 0 -39 27 -50 116 -50 l84 0 0 -33 c0 -35 25 -67 52 -67 24
0 48 34 48 68 0 31 2 32 41 32 84 0 147 54 156 134 10 89 -49 156 -144 164
l-53 4 0 49 0 49 84 0 c89 0 116 11 116 50 0 39 -27 50 -116 50 l-84 0 0 33
c0 57 -50 86 -83 49z m-17 -232 c0 -49 0 -50 -32 -50 -34 0 -68 24 -68 48 0
27 32 52 67 52 l33 0 0 -50z m182 -167 c37 -33 8 -83 -49 -83 l-33 0 0 50 c0
49 0 50 32 50 17 0 40 -7 50 -17z"/>
<path d="M1646 434 c-31 -30 -9 -84 34 -84 24 0 50 26 50 50 0 24 -26 50 -50
50 -10 0 -26 -7 -34 -16z"/>
<path d="M1784 425 c-15 -23 -15 -27 0 -50 16 -24 21 -25 116 -25 104 0 130
10 130 50 0 40 -26 50 -130 50 -95 0 -100 -1 -116 -25z"/>
</g>
</svg>
